HIERARCHY
ROOT Hips
{
	OFFSET 0.000000 83.214638 0.000000
	CHANNELS 6 Xposition Yposition Zposition Xrotation Yrotation Zrotation
	JOINT Pelvis
	{
		OFFSET 0.000000 0.000000 0.000000
		CHANNELS 3 Xrotation Yrotation Zrotation
		JOINT LeftUpLeg
		{
			OFFSET 8.479700 -4.795502 -0.379100
			CHANNELS 3 Xrotation Yrotation Zrotation
			JOINT LeftLeg
			{
				OFFSET 0.024144 -32.555107 0.112900
				CHANNELS 3 Xrotation Yrotation Zrotation
				JOINT LeftFoot
				{
					OFFSET -0.024144 -32.638630 -3.012600
					CHANNELS 3 Xrotation Yrotation Zrotation
					JOINT LeftToeBase
					{
						OFFSET 0.970200 -13.225400 11.864200
						CHANNELS 3 Xrotation Yrotation Zrotation
						End Site
						{
							OFFSET 0.000000 12.319262 0.000000
						}
					}
					JOINT LFootTongue
					{
						OFFSET 1.142400 -1.059800 6.665200
						CHANNELS 3 Xrotation Yrotation Zrotation
						End Site
						{
							OFFSET 0.000000 12.319262 0.000000
						}
					}
				}
				JOINT LeftPantLeg
				{
					OFFSET 0.918482 -16.533964 -2.284700
					CHANNELS 3 Xrotation Yrotation Zrotation
					End Site
					{
						OFFSET 0.350399 24.744368 0.000000
					}
				}
			}
		}
		JOINT RightUpLeg
		{
			OFFSET -8.479700 -4.795502 -0.379100
			CHANNELS 3 Xrotation Yrotation Zrotation
			JOINT RightLeg
			{
				OFFSET -0.023144 -32.555092 0.112900
				CHANNELS 3 Xrotation Yrotation Zrotation
				JOINT RightFoot
				{
					OFFSET 0.023144 -32.638641 -3.012700
					CHANNELS 3 Xrotation Yrotation Zrotation
					JOINT RightToeBase
					{
						OFFSET -0.970200 -13.225400 11.864200
						CHANNELS 3 Xrotation Yrotation Zrotation
						End Site
						{
							OFFSET 0.000000 12.319244 0.000000
						}
					}
					JOINT RFootTongue
					{
						OFFSET -1.142200 -1.059800 6.665200
						CHANNELS 3 Xrotation Yrotation Zrotation
						End Site
						{
							OFFSET 0.000000 12.319243 0.000000
						}
					}
				}
				JOINT RightPantLeg
				{
					OFFSET -0.919482 -16.533978 -2.284800
					CHANNELS 3 Xrotation Yrotation Zrotation
					End Site
					{
						OFFSET -0.350400 24.744419 0.000000
					}
				}
			}
		}
	}
	JOINT Spine
	{
		OFFSET 0.000000 7.722000 1.166200
		CHANNELS 3 Xrotation Yrotation Zrotation
		JOINT Spine1
		{
			OFFSET 0.000000 12.024101 0.248800
			CHANNELS 3 Xrotation Yrotation Zrotation
			JOINT Spine2
			{
				OFFSET 0.000000 11.502998 -0.491200
				CHANNELS 3 Xrotation Yrotation Zrotation
				JOINT Neck
				{
					OFFSET 0.000000 18.430702 -3.123100
					CHANNELS 3 Xrotation Yrotation Zrotation
					JOINT Head
					{
						OFFSET 0.000000 9.051102 1.034000
						CHANNELS 3 Xrotation Yrotation Zrotation
						JOINT HairB
						{
							OFFSET 0.208400 24.786102 24.822300
							CHANNELS 3 Xrotation Yrotation Zrotation
							End Site
							{
								OFFSET 0.000000 32.263779 0.000000
							}
						}
						JOINT HairA
						{
							OFFSET -7.081100 24.428299 23.196600
							CHANNELS 3 Xrotation Yrotation Zrotation
							End Site
							{
								OFFSET 0.000000 32.263779 0.000000
							}
						}
						JOINT Hat
						{
							OFFSET 16.728800 15.048294 -15.439601
							CHANNELS 3 Xrotation Yrotation Zrotation
							End Site
							{
								OFFSET 0.000000 32.263779 0.000000
							}
						}
					}
				}
				JOINT LeftShoulder
				{
					OFFSET 6.197800 13.665199 -4.064700
					CHANNELS 3 Xrotation Yrotation Zrotation
					JOINT LeftArm
					{
						OFFSET 7.778100 -0.187103 -1.709300
						CHANNELS 3 Xrotation Yrotation Zrotation
						JOINT LeftForeArm
						{
							OFFSET 22.049376 0.000000 0.000000
							CHANNELS 3 Xrotation Yrotation Zrotation
							JOINT LeftHand
							{
								OFFSET 23.009392 0.000000 0.000000
								CHANNELS 3 Xrotation Yrotation Zrotation
								JOINT LeftHandThumb1
								{
									OFFSET 3.507191 -2.063065 3.133727
									CHANNELS 3 Xrotation Yrotation Zrotation
									JOINT LeftHandThumb2
									{
										OFFSET 3.101337 -1.790558 1.790558
										CHANNELS 3 Xrotation Yrotation Zrotation
										JOINT LeftHandThumb3
										{
											OFFSET 3.058640 -1.765907 1.765906
											CHANNELS 3 Xrotation Yrotation Zrotation
											End Site
											{
												OFFSET -0.415260 3.926476 -0.049563
											}
										}
									}
								}
								JOINT LeftHandIndex1
								{
									OFFSET 11.334419 -0.901459 3.706815
									CHANNELS 3 Xrotation Yrotation Zrotation
									JOINT LeftHandIndex2
									{
										OFFSET 3.283112 0.000000 0.000000
										CHANNELS 3 Xrotation Yrotation Zrotation
										JOINT LeftHandIndex3
										{
											OFFSET 3.323853 0.000000 0.000000
											CHANNELS 3 Xrotation Yrotation Zrotation
											End Site
											{
												OFFSET -1.135597 3.097809 0.402452
											}
										}
									}
								}
								JOINT LeftHandMiddle1
								{
									OFFSET 11.335861 0.000000 0.000000
									CHANNELS 3 Xrotation Yrotation Zrotation
									JOINT LeftHandMiddle2
									{
										OFFSET 3.410492 0.000000 0.000000
										CHANNELS 3 Xrotation Yrotation Zrotation
										JOINT LeftHandMiddle3
										{
											OFFSET 3.312172 0.000000 0.000000
											CHANNELS 3 Xrotation Yrotation Zrotation
											End Site
											{
												OFFSET -1.150200 3.080154 0.400270
											}
										}
									}
								}
								JOINT LeftHandRing1
								{
									OFFSET 11.514786 -0.013176 -3.003090
									CHANNELS 3 Xrotation Yrotation Zrotation
									JOINT LeftHandRing2
									{
										OFFSET 3.053307 0.000000 0.000000
										CHANNELS 3 Xrotation Yrotation Zrotation
										JOINT LeftHandRing3
										{
											OFFSET 3.295807 0.000000 0.000000
											CHANNELS 3 Xrotation Yrotation Zrotation
											End Site
											{
												OFFSET -1.281006 3.013344 0.375733
											}
										}
									}
								}
								JOINT LeftHandPinky1
								{
									OFFSET 10.518692 -0.960396 -5.730441
									CHANNELS 3 Xrotation Yrotation Zrotation
									JOINT LeftHandPinky2
									{
										OFFSET 2.861649 0.000000 0.000000
										CHANNELS 3 Xrotation Yrotation Zrotation
										JOINT LeftHandPinky3
										{
											OFFSET 2.863380 0.000000 0.000000
											CHANNELS 3 Xrotation Yrotation Zrotation
											End Site
											{
												OFFSET -0.843597 2.711159 0.369971
											}
										}
									}
								}
							}
							JOINT LSleeve
							{
								OFFSET 6.676277 -0.344902 -1.011730
								CHANNELS 3 Xrotation Yrotation Zrotation
								End Site
								{
									OFFSET 0.000000 14.885353 0.000000
								}
							}
						}
					}
				}
				JOINT RightShoulder
				{
					OFFSET -6.197800 13.665199 -4.064700
					CHANNELS 3 Xrotation Yrotation Zrotation
					JOINT RightArm
					{
						OFFSET -7.778100 -0.187103 -1.709300
						CHANNELS 3 Xrotation Yrotation Zrotation
						JOINT RightForeArm
						{
							OFFSET -22.049376 0.000000 0.000000
							CHANNELS 3 Xrotation Yrotation Zrotation
							JOINT RightHand
							{
								OFFSET -23.009392 0.000000 0.000000
								CHANNELS 3 Xrotation Yrotation Zrotation
								JOINT RightHandThumb1
								{
									OFFSET -3.507191 -2.063065 3.133727
									CHANNELS 3 Xrotation Yrotation Zrotation
									JOINT RightHandThumb2
									{
										OFFSET -3.101337 -1.790558 1.790558
										CHANNELS 3 Xrotation Yrotation Zrotation
										JOINT RightHandThumb3
										{
											OFFSET -3.058640 -1.765907 1.765906
											CHANNELS 3 Xrotation Yrotation Zrotation
											End Site
											{
												OFFSET 0.415260 3.926476 -0.049563
											}
										}
									}
								}
								JOINT RightHandIndex1
								{
									OFFSET -11.334419 -0.901459 3.706815
									CHANNELS 3 Xrotation Yrotation Zrotation
									JOINT RightHandIndex2
									{
										OFFSET -3.283112 0.000000 0.000000
										CHANNELS 3 Xrotation Yrotation Zrotation
										JOINT RightHandIndex3
										{
											OFFSET -3.323853 0.000000 0.000000
											CHANNELS 3 Xrotation Yrotation Zrotation
											End Site
											{
												OFFSET 1.135597 3.097809 0.402452
											}
										}
									}
								}
								JOINT RightHandMiddle1
								{
									OFFSET -11.335861 0.000000 0.000000
									CHANNELS 3 Xrotation Yrotation Zrotation
									JOINT RightHandMiddle2
									{
										OFFSET -3.410492 0.000000 0.000000
										CHANNELS 3 Xrotation Yrotation Zrotation
										JOINT RightHandMiddle3
										{
											OFFSET -3.312172 0.000000 0.000000
											CHANNELS 3 Xrotation Yrotation Zrotation
											End Site
											{
												OFFSET 1.150200 3.080154 0.400270
											}
										}
									}
								}
								JOINT RightHandRing1
								{
									OFFSET -11.514786 -0.013176 -3.003090
									CHANNELS 3 Xrotation Yrotation Zrotation
									JOINT RightHandRing2
									{
										OFFSET -3.053307 0.000000 0.000000
										CHANNELS 3 Xrotation Yrotation Zrotation
										JOINT RightHandRing3
										{
											OFFSET -3.295807 0.000000 0.000000
											CHANNELS 3 Xrotation Yrotation Zrotation
											End Site
											{
												OFFSET 1.281006 3.013344 0.375733
											}
										}
									}
								}
								JOINT RightHandPinky1
								{
									OFFSET -10.518692 -0.960396 -5.730441
									CHANNELS 3 Xrotation Yrotation Zrotation
									JOINT RightHandPinky2
									{
										OFFSET -2.861649 0.000000 0.000000
										CHANNELS 3 Xrotation Yrotation Zrotation
										JOINT RightHandPinky3
										{
											OFFSET -2.863380 0.000000 0.000000
											CHANNELS 3 Xrotation Yrotation Zrotation
											End Site
											{
												OFFSET 0.843597 2.711159 0.369971
											}
										}
									}
								}
							}
							JOINT RSleeve
							{
								OFFSET -6.676277 -0.344902 -1.011730
								CHANNELS 3 Xrotation Yrotation Zrotation
								End Site
								{
									OFFSET 0.000000 14.885353 0.000000
								}
							}
						}
					}
				}
				JOINT Backpack
				{
					OFFSET 0.000000 -2.471497 36.677502
					CHANNELS 3 Xrotation Yrotation Zrotation
					End Site
					{
						OFFSET 0.000000 20.427315 0.000000
					}
				}
				JOINT Hood
				{
					OFFSET 0.000000 18.754097 -10.431000
					CHANNELS 3 Xrotation Yrotation Zrotation
					JOINT Hood1
					{
						OFFSET 0.000000 -5.011002 -7.685901
						CHANNELS 3 Xrotation Yrotation Zrotation
						End Site
						{
							OFFSET 0.000000 9.175140 0.000000
						}
					}
				}
				JOINT LHoodieString
				{
					OFFSET 5.250500 16.397697 3.089900
					CHANNELS 3 Xrotation Yrotation Zrotation
					JOINT LHoodieString1
					{
						OFFSET 0.257700 -6.364304 3.694600
						CHANNELS 3 Xrotation Yrotation Zrotation
						JOINT LHoodieString2
						{
							OFFSET 0.000000 -9.643799 2.679100
							CHANNELS 3 Xrotation Yrotation Zrotation
							End Site
							{
								OFFSET 0.000000 10.009018 0.000000
							}
						}
					}
				}
				JOINT RHoodieString
				{
					OFFSET -5.250500 16.397697 3.089900
					CHANNELS 3 Xrotation Yrotation Zrotation
					JOINT RHoodieString1
					{
						OFFSET -0.257700 -6.364304 3.694600
						CHANNELS 3 Xrotation Yrotation Zrotation
						JOINT RHoodieString2
						{
							OFFSET 0.000000 -9.643799 2.679100
							CHANNELS 3 Xrotation Yrotation Zrotation
							End Site
							{
								OFFSET 0.000000 10.009018 0.000000
							}
						}
					}
				}
			}
			JOINT LBackpack_Strap
			{
				OFFSET 15.223200 -7.719803 -6.610900
				CHANNELS 3 Xrotation Yrotation Zrotation
				End Site
				{
					OFFSET 0.000000 16.040596 0.000000
				}
			}
			JOINT RBackpack_Strap
			{
				OFFSET -15.223000 -7.719803 -6.610900
				CHANNELS 3 Xrotation Yrotation Zrotation
				End Site
				{
					OFFSET 0.000000 16.040596 0.000000
				}
			}
		}
	}
	JOINT BoyFacialAnim_Joint
	{
		OFFSET 1.000000 -82.208099 -1.550900
		CHANNELS 3 Xrotation Yrotation Zrotation
		End Site
		{
			OFFSET 0.000000 30.012791 0.000000
		}
	}
}
MOTION
Frames: 4
Frame Time: 0.033333
-0.124726 81.791779 1.057549 -2.719251 -3.913907 -0.058335 -0.000000 0.000000 0.000000 -3.024383 13.204333 6.767961 15.701469 1.882233 -1.339497 -9.802750 0.645005 -4.557316 -0.000000 -0.000000 -0.000000 -0.000000 -0.000000 -0.000000 -0.000001 0.000000 0.000001 -3.828448 -2.204050 -3.814587 17.733280 -9.686088 0.988090 -9.989094 -6.213078 4.289310 0.000000 0.000000 0.000000 0.000000 0.000000 0.000000 -0.000001 -0.000000 0.000000 -1.596448 1.295017 -3.203211 -0.071211 0.175621 1.337828 -0.075319 0.171552 1.338205 6.808597 0.365422 0.305361 -4.961294 3.561682 -3.341243 -0.000000 -0.000000 -0.000000 -0.000000 -0.000000 -0.000000 -0.000000 -0.000000 -0.000000 0.922536 -18.133884 -10.355131 4.525462 1.934983 -73.341506 -0.000001 -15.188599 -0.000020 16.710906 1.989526 3.942062 -2.243540 11.555931 10.006464 3.664661 16.070376 4.049755 0.000005 0.000002 -0.000001 0.436963 2.418146 -20.482976 1.211120 3.905235 -34.448541 0.000000 -0.000000 -0.000004 0.885423 3.382787 -29.327586 1.127085 3.780094 -33.194873 -0.000000 -0.000001 0.000002 1.294321 4.023552 -35.652034 1.332247 4.075777 -36.189129 -0.000005 -0.000003 -0.000004 4.222849 7.545284 -39.717786 1.144950 -0.276405 -33.695632 -0.000002 0.000001 0.000002 -0.000002 0.000000 -0.000000 0.450452 -2.028484 5.472503 6.320465 28.080458 73.732350 -0.000006 14.757701 0.000025 10.162155 4.807321 -4.179634 -2.858923 -8.307971 -13.423938 3.193511 -13.919616 -6.732419 0.000003 0.000001 0.000001 0.307630 -2.049220 17.073789 0.540085 -2.691391 22.689246 -0.000002 -0.000000 0.000003 0.593616 -2.815891 23.803699 0.746956 -3.140170 26.754631 -0.000000 0.000000 0.000001 0.864633 -3.363040 28.828849 1.135191 -3.812683 33.150552 -0.000002 -0.000001 0.000004 0.894964 -3.417473 29.341769 0.987630 -3.577082 30.861090 0.000001 -0.000001 -0.000003 -0.000003 -0.000001 -0.000000 -0.000000 -0.000000 -0.000000 -0.000000 -0.000000 -0.000000 -0.000000 -0.000000 -0.000000 -0.000000 -0.000000 -0.000000 -0.000000 -0.000000 0.000000 -0.000000 0.000000 0.000000 -0.000000 -0.000000 -0.000000 -0.000000 -0.000000 0.000000 -0.000000 0.000000 0.000000 -0.000000 -0.000000 0.000000 -0.000000 -0.000000 0.000000 -0.000000 0.000000 0.000000 
-0.124019 81.791916 1.065074 -2.721236 -3.924355 -0.061325 0.000000 -0.000000 -0.000000 -3.011274 13.206097 6.767863 15.696821 1.894108 -1.338761 -9.808274 0.645762 -4.560429 -0.000000 0.000000 -0.000000 -0.000000 0.000000 -0.000000 -0.000000 -0.000000 -0.000000 -3.817096 -2.198563 -3.809146 17.723805 -9.687176 0.981282 -9.988933 -6.210258 4.294207 -0.000000 0.000000 0.000000 -0.000000 0.000000 0.000000 0.000001 0.000002 -0.000000 -1.598147 1.290026 -3.203669 -0.067886 0.174971 1.339023 -0.071977 0.170906 1.339404 6.811766 0.370114 0.301922 -4.942270 3.581716 -3.339700 0.000000 0.000000 0.000000 0.000000 0.000000 0.000000 0.000000 0.000000 0.000000 0.923053 -18.119879 -10.364386 4.544728 1.958978 -73.332763 0.000002 -15.256771 0.000009 16.751915 2.007331 3.987025 -2.243546 11.555935 10.006467 3.664669 16.070376 4.049753 0.000001 0.000001 0.000002 0.437409 2.419348 -20.493578 1.211480 3.905751 -34.453872 -0.000001 -0.000001 -0.000004 0.886703 3.385087 -29.349418 1.127897 3.781320 -33.207075 0.000001 0.000001 -0.000001 1.296867 4.027091 -35.688377 1.333683 4.077752 -36.209411 -0.000001 -0.000004 0.000001 4.229434 7.547593 -39.767936 1.146615 -0.273925 -33.720350 -0.000002 0.000000 -0.000002 -0.000000 0.000001 0.000000 0.450940 -2.025332 5.475432 6.321353 28.087005 73.726687 0.000002 14.760170 -0.000000 10.142609 4.868319 -4.207054 -2.858921 -8.307971 -13.423935 3.193505 -13.919615 -6.732421 0.000000 0.000002 0.000001 0.306694 -2.046146 17.047353 0.539449 -2.689916 22.676033 -0.000001 -0.000000 -0.000002 0.592540 -2.813471 23.781966 0.746293 -3.138851 26.742445 0.000003 -0.000001 0.000001 0.863631 -3.361257 28.811790 1.134559 -3.811701 33.141027 0.000002 -0.000001 0.000002 0.894126 -3.416036 29.328016 0.987220 -3.576369 30.854229 -0.000002 -0.000003 -0.000002 0.000002 -0.000001 0.000000 -0.000000 0.000000 -0.000000 -0.000000 0.000000 -0.000000 -0.000000 0.000000 -0.000000 -0.000000 0.000000 -0.000000 -0.000000 0.000000 -0.000000 0.000000 -0.000000 -0.000000 -0.000000 0.000000 -0.000000 -0.000000 0.000000 -0.000000 0.000000 -0.000000 -0.000000 -0.000000 0.000000 -0.000000 -0.000000 0.000000 -0.000000 0.000000 -0.000000 -0.000000 
-0.123874 81.791733 1.073861 -2.722333 -3.937788 -0.065295 -0.000000 0.000000 -0.000000 -2.998040 13.209103 6.769629 15.692845 1.907480 -1.338739 -9.815465 0.646720 -4.564265 0.000000 -0.000000 -0.000000 0.000000 -0.000000 0.000000 0.000000 0.000001 0.000000 -3.806488 -2.188600 -3.799404 17.714985 -9.688916 0.970002 -9.989650 -6.209541 4.300950 0.000000 0.000002 -0.000000 0.000000 0.000002 -0.000000 -0.000000 -0.000001 -0.000000 -1.605171 1.281892 -3.200540 -0.063951 0.173914 1.340012 -0.068022 0.169836 1.340390 6.821698 0.376350 0.302515 -4.938552 3.617028 -3.343405 0.000000 0.000000 0.000000 0.000000 0.000000 0.000000 0.000000 0.000000 0.000000 0.923447 -18.117681 -10.371828 4.564130 1.987054 -73.328064 0.000003 -15.310067 0.000010 16.786037 2.004944 4.053229 -2.243547 11.555930 10.006463 3.664662 16.070376 4.049754 0.000003 -0.000000 0.000000 0.436660 2.417326 -20.475751 1.210869 3.904861 -34.444927 -0.000001 -0.000003 0.000003 0.886679 3.385012 -29.348811 1.127868 3.781289 -33.206744 0.000000 -0.000000 0.000002 1.298290 4.029063 -35.708639 1.334495 4.078840 -36.220756 -0.000002 0.000000 -0.000002 4.234504 7.549357 -39.806592 1.147891 -0.272002 -33.739362 0.000002 -0.000001 -0.000000 -0.000001 -0.000001 0.000001 0.452542 -2.018455 5.494917 6.437503 28.055224 73.649547 0.000001 14.973180 0.000003 10.122147 4.950018 -4.231639 -2.858923 -8.307971 -13.423940 3.193505 -13.919616 -6.732419 0.000003 0.000002 0.000004 0.305803 -2.043242 17.022419 0.538885 -2.688515 22.663550 -0.000001 0.000000 0.000002 0.591395 -2.810889 23.758632 0.745580 -3.137432 26.729423 0.000003 -0.000001 0.000001 0.862311 -3.358872 28.789408 1.133737 -3.810440 33.128504 -0.000006 0.000000 0.000000 0.892794 -3.413661 29.305572 0.986518 -3.575203 30.843010 -0.000002 -0.000003 -0.000000 -0.000002 -0.000000 -0.000001 0.000000 0.000000 -0.000000 0.000000 0.000000 -0.000000 0.000000 0.000000 -0.000000 0.000000 0.000000 -0.000000 0.000000 0.000000 -0.000000 0.000000 0.000000 -0.000000 0.000000 0.000000 -0.000000 0.000000 0.000000 -0.000000 0.000000 0.000000 -0.000000 -0.000000 0.000000 0.000000 -0.000000 0.000000 0.000000 -0.000000 0.000000 -0.000000 
-0.124977 81.791496 1.082057 -2.718386 -3.953384 -0.076113 -0.000000 -0.000000 0.000000 -2.998624 13.216662 6.784310 15.700272 1.915943 -1.342034 -9.827490 0.647792 -4.567614 -0.000000 -0.000001 0.000000 -0.000000 -0.000001 0.000000 -0.000000 -0.000000 -0.000000 -3.798098 -2.175297 -3.780420 17.699059 -9.690940 0.960042 -9.986162 -6.213154 4.304118 0.000000 0.000002 0.000000 0.000000 0.000002 0.000000 -0.000001 0.000000 0.000000 -1.620361 1.274975 -3.193222 -0.058710 0.173054 1.340568 -0.062751 0.168948 1.340957 6.837795 0.381232 0.305460 -4.951112 3.649700 -3.349115 -0.000000 -0.000000 -0.000001 -0.000000 -0.000000 -0.000001 -0.000000 -0.000000 -0.000001 0.923818 -18.136039 -10.374324 4.584374 2.019324 -73.330735 -0.000005 -15.344693 -0.000007 16.808706 1.968654 4.129205 -2.243544 11.555931 10.006466 3.664664 16.070376 4.049756 0.000003 -0.000001 0.000002 0.434808 2.412393 -20.432017 1.209383 3.902703 -34.422996 -0.000000 0.000000 0.000002 0.885218 3.382430 -29.324338 1.126958 3.779932 -33.192988 0.000000 -0.000001 0.000000 1.298121 4.028848 -35.706347 1.334408 4.078723 -36.219469 0.000004 0.000000 -0.000007 4.236642 7.550115 -39.822827 1.148425 -0.271218 -33.747374 -0.000003 0.000000 -0.000000 0.000000 0.000000 0.000001 0.455558 -2.001626 5.525679 6.623386 27.990607 73.529602 -0.000000 15.314555 0.000021 10.099558 5.061311 -4.257846 -2.858923 -8.307974 -13.423939 3.193510 -13.919613 -6.732424 -0.000001 0.000002 0.000007 0.305089 -2.040909 17.002412 0.538395 -2.687404 22.653560 -0.000004 0.000001 0.000000 0.590353 -2.808519 23.737317 0.744934 -3.136130 26.717518 0.000002 -0.000004 -0.000001 0.860911 -3.356315 28.765629 1.132845 -3.809091 33.115172 -0.000001 0.000002 0.000004 0.891207 -3.410807 29.278859 0.985678 -3.573824 30.829623 -0.000000 -0.000003 -0.000000 -0.000002 0.000003 -0.000001 -0.000000 0.000000 -0.000000 -0.000000 0.000000 -0.000000 -0.000000 0.000000 -0.000000 -0.000000 0.000000 -0.000000 -0.000000 0.000000 -0.000000 0.000000 0.000000 -0.000000 -0.000000 0.000000 -0.000000 -0.000000 0.000000 -0.000000 0.000000 0.000000 -0.000000 -0.000000 0.000000 -0.000000 -0.000000 0.000000 -0.000000 -0.000000 -0.000000 0.000000 
